<svg width="4203" height="1182" viewBox="0 0 4203 1182" fill="none" xmlns="http://www.w3.org/2000/svg">
<path d="M4094.56 827.156C4094.56 819.96 4096.32 813.4 4099.83 807.477C4103.34 801.554 4108.06 796.837 4113.98 793.327C4119.9 789.817 4126.46 788.062 4133.66 788.062C4139.89 788.062 4145.64 789.4 4150.9 792.076C4156.21 794.753 4160.6 798.417 4164.06 803.067C4167.53 807.674 4169.68 812.896 4170.51 818.731H4154.59C4153.71 814.212 4151.27 810.526 4147.28 807.674C4143.29 804.779 4138.75 803.331 4133.66 803.331C4129.27 803.331 4125.28 804.406 4121.68 806.556C4118.08 808.705 4115.21 811.579 4113.06 815.177C4110.91 818.775 4109.83 822.768 4109.83 827.156C4109.83 831.543 4110.91 835.536 4113.06 839.134C4115.21 842.732 4118.08 845.605 4121.68 847.755C4125.28 849.905 4129.27 850.98 4133.66 850.98C4138.75 850.98 4143.05 849.554 4146.56 846.702C4150.11 843.807 4152.35 840.099 4153.27 835.58H4169.2C4168.36 841.415 4166.32 846.658 4163.08 851.309C4159.83 855.916 4155.66 859.558 4150.57 862.235C4145.53 864.911 4139.89 866.249 4133.66 866.249C4126.46 866.249 4119.9 864.494 4113.98 860.984C4108.06 857.474 4103.34 852.757 4099.83 846.834C4096.32 840.911 4094.56 834.351 4094.56 827.156ZM4133 896.656C4123.43 896.656 4114.44 894.857 4106.02 891.259C4097.64 887.661 4090.24 882.681 4083.84 876.319C4077.47 869.913 4072.47 862.52 4068.83 854.139C4065.23 845.759 4063.46 836.764 4063.5 827.156C4063.54 817.547 4065.36 808.552 4068.96 800.172C4072.6 791.791 4077.61 784.42 4083.97 778.058C4090.33 771.652 4097.7 766.65 4106.08 763.052C4114.46 759.454 4123.43 757.656 4133 757.656C4142.61 757.656 4151.6 759.454 4159.98 763.052C4168.41 766.65 4175.78 771.652 4182.1 778.058C4188.46 784.42 4193.44 791.791 4197.04 800.172C4200.63 808.552 4202.45 817.547 4202.5 827.156C4202.54 836.764 4200.77 845.759 4197.17 854.139C4193.57 862.52 4188.59 869.913 4182.23 876.319C4175.87 882.681 4168.47 887.661 4160.05 891.259C4151.62 894.857 4142.61 896.656 4133 896.656ZM4133 881.387C4140.5 881.387 4147.54 879.983 4154.12 877.174C4160.71 874.366 4166.48 870.483 4171.43 865.525C4176.39 860.567 4180.27 854.819 4183.08 848.282C4185.89 841.7 4187.27 834.68 4187.23 827.221C4187.19 819.718 4185.76 812.676 4182.95 806.095C4180.14 799.513 4176.26 793.744 4171.3 788.786C4166.34 783.828 4160.6 779.945 4154.06 777.137C4147.52 774.329 4140.5 772.924 4133 772.924C4125.54 772.924 4118.54 774.329 4112 777.137C4105.47 779.945 4099.72 783.85 4094.76 788.852C4089.8 793.81 4085.9 799.579 4083.05 806.161C4080.24 812.698 4078.81 819.718 4078.77 827.221C4078.72 834.636 4080.11 841.635 4082.92 848.216C4085.72 854.754 4089.61 860.501 4094.56 865.459C4099.57 870.417 4105.34 874.322 4111.87 877.174C4118.45 879.983 4125.5 881.387 4133 881.387Z" fill="#1C1C1C"/>
<path d="M2802.31 0.819133C2726.98 5.48582 2660.44 25.8859 2600.58 62.5527C2489.78 130.553 2419.11 251.353 2401.64 403.487C2400.44 413.354 2399.11 436.82 2398.71 455.487C2397.11 526.287 2405.38 584.821 2425.51 645.355C2454.58 732.288 2505.91 804.022 2574.98 854.156C2628.71 893.089 2695.64 919.089 2765.64 928.022C2827.24 936.022 2876.98 933.089 2924.58 918.689C2984.31 900.689 3025.78 872.956 3067.38 823.222C3072.18 817.489 3076.58 813.222 3076.98 813.755C3077.51 814.422 3082.04 835.755 3086.98 861.489C3091.91 887.089 3096.31 908.956 3096.71 909.889C3097.11 911.089 3110.84 911.489 3159.11 911.489H3220.98V431.487H2848.98V578.154H2946.98C3011.91 578.154 3044.98 578.554 3044.98 579.488C3044.98 584.688 3040.31 610.821 3036.98 624.155C3016.58 706.422 2963.24 754.422 2878.31 766.688C2824.44 774.555 2770.44 767.888 2730.98 748.822C2655.38 712.022 2609.38 636.288 2595.38 524.821C2592.58 502.821 2592.98 434.021 2596.04 411.487C2602.84 360.687 2613.51 322.954 2630.84 288.42C2663.91 222.42 2717.24 181.353 2784.98 169.353C2812.44 164.553 2852.71 164.686 2878.18 169.486C2934.44 180.286 2978.31 213.486 3002.84 264.02C3009.38 277.487 3015.78 294.953 3019.64 309.753L3021.11 315.487H3113.64C3195.38 315.487 3206.31 315.22 3206.31 313.487C3206.31 308.82 3202.04 283.087 3198.84 268.82C3172.98 152.42 3089.78 62.9527 2969.64 22.4192C2917.91 4.95245 2858.84 -2.64754 2802.31 0.819133Z" fill="#1C1C1C"/>
<path d="M3342.31 911.488H3968.98V746.154H3536.98V22.1519H3342.31V911.488Z" fill="#1C1C1C"/>
<path d="M173.92 925.82V244H278.679V925.82H173.92Z" fill="#1C1C1C"/>
<path d="M810.75 1181.5V821.062H801.872C794.178 833.491 783.229 849.175 769.024 868.114C754.82 886.758 734.549 903.478 708.211 918.274C681.874 932.775 646.806 940.025 603.009 940.025C546.191 940.025 496.031 925.673 452.529 896.967C409.028 867.966 374.996 827.128 350.434 774.453C325.872 721.481 313.591 658.892 313.591 586.686C313.591 515.071 325.872 452.926 350.434 400.25C374.996 347.575 409.176 306.885 452.973 278.18C496.771 249.474 547.374 235.122 604.784 235.122C649.174 235.122 684.241 242.52 709.987 257.317C736.028 271.817 755.856 288.389 769.468 307.033C783.377 325.38 794.178 340.473 801.872 352.31H814.301V244H915.509V1181.5H810.75ZM617.213 845.92C659.235 845.92 694.746 834.97 723.747 813.072C752.748 790.877 774.795 760.248 789.887 721.185C804.98 681.827 812.526 636.402 812.526 584.91C812.526 534.01 805.128 489.473 790.331 451.298C775.535 412.827 753.636 382.938 724.635 361.632C695.634 340.029 659.827 329.227 617.213 329.227C572.824 329.227 535.833 340.621 506.24 363.407C476.943 385.898 454.897 416.526 440.1 455.293C425.6 493.764 418.35 536.97 418.35 584.91C418.35 633.442 425.748 677.536 440.544 717.19C455.637 756.549 477.831 787.918 507.128 811.296C536.721 834.378 573.416 845.92 617.213 845.92Z" fill="#1C1C1C"/>
<path d="M1411.96 647.055V244H1516.72V925.82H1411.96V810.408H1404.86C1388.88 845.032 1364.02 874.477 1330.28 898.743C1296.55 922.713 1253.93 934.698 1202.44 934.698C1159.83 934.698 1121.95 925.377 1088.8 906.733C1055.66 887.794 1029.62 859.384 1010.68 821.505C991.74 783.331 982.27 735.242 982.27 677.24V244H1087.03V670.138C1087.03 719.854 1100.94 759.508 1128.75 789.101C1156.87 818.694 1192.67 833.491 1236.18 833.491C1262.22 833.491 1288.7 826.832 1315.63 813.515C1342.86 800.199 1365.64 779.779 1383.99 752.258C1402.64 724.737 1411.96 689.669 1411.96 647.055Z" fill="#1C1C1C"/>
<path d="M1583.59 925.82V244H1688.35V925.82H1583.59ZM1636.86 203.824C1616.44 203.824 1598.83 196.87 1584.03 182.961C1569.53 169.053 1562.28 152.333 1562.28 132.801C1562.28 113.27 1569.53 96.55 1584.03 82.6413C1598.83 68.7326 1616.44 61.7783 1636.86 61.7783C1657.27 61.7783 1674.73 68.7326 1689.23 82.6413C1704.03 96.55 1711.43 113.27 1711.43 132.801C1711.43 152.333 1704.03 169.053 1689.23 182.961C1674.73 196.87 1657.27 203.824 1636.86 203.824Z" fill="#1C1C1C"/>
<path d="M2012.68 940.025C1955.86 940.025 1905.7 925.673 1862.2 896.967C1818.7 867.966 1784.66 827.128 1760.1 774.453C1735.54 721.481 1723.26 658.892 1723.26 586.686C1723.26 515.071 1735.54 452.926 1760.1 400.25C1784.66 347.575 1818.84 306.885 1862.64 278.18C1906.44 249.474 1957.04 235.122 2014.45 235.122C2058.84 235.122 2093.91 242.52 2119.65 257.317C2145.7 271.817 2165.52 288.389 2179.14 307.033C2193.05 325.38 2203.85 340.473 2211.54 352.31H2220.42V16.7264H2325.18V925.82H2223.97V821.062H2211.54C2203.85 833.491 2192.9 849.175 2178.69 868.114C2164.49 886.758 2144.22 903.478 2117.88 918.274C2091.54 932.775 2056.47 940.025 2012.68 940.025ZM2026.88 845.92C2068.9 845.92 2104.41 834.97 2133.42 813.072C2162.42 790.877 2184.46 760.248 2199.56 721.185C2214.65 681.827 2222.19 636.402 2222.19 584.91C2222.19 534.01 2214.8 489.473 2200 451.298C2185.2 412.827 2163.3 382.938 2134.3 361.632C2105.3 340.029 2069.49 329.227 2026.88 329.227C1982.49 329.227 1945.5 340.621 1915.91 363.407C1886.61 385.898 1864.56 416.526 1849.77 455.293C1835.27 493.764 1828.02 536.97 1828.02 584.91C1828.02 633.442 1835.42 677.536 1850.21 717.19C1865.3 756.549 1887.5 787.918 1916.8 811.296C1946.39 834.378 1983.08 845.92 2026.88 845.92Z" fill="#1C1C1C"/>
<path d="M104.759 17.3156V926.41H0V17.3156H104.759Z" fill="#1C1C1C"/>
<path d="M173.477 181.286C188.273 195.195 205.881 202.149 226.3 202.149C246.719 202.149 264.178 195.195 278.679 181.286C293.475 167.377 300.874 150.658 300.874 131.126C300.874 111.595 293.475 94.8751 278.679 80.9664C264.178 67.0578 246.719 60.1035 226.3 60.1035C205.881 60.1035 188.273 67.0578 173.477 80.9664C158.976 94.8751 151.726 111.595 151.726 131.126C151.726 150.658 158.976 167.377 173.477 181.286Z" fill="#1C1C1C"/>
</svg>
